<?xml version="1.0" encoding="UTF-8" standalone="no"?>
<!-- Generator: Adobe Illustrator 19.1.0, SVG Export Plug-In . SVG Version: 6.00 Build 0)  -->

<svg
   xmlns:dc="http://purl.org/dc/elements/1.1/"
   xmlns:cc="http://creativecommons.org/ns#"
   xmlns:rdf="http://www.w3.org/1999/02/22-rdf-syntax-ns#"
   xmlns:svg="http://www.w3.org/2000/svg"
   xmlns="http://www.w3.org/2000/svg"
   xmlns:sodipodi="http://sodipodi.sourceforge.net/DTD/sodipodi-0.dtd"
   xmlns:inkscape="http://www.inkscape.org/namespaces/inkscape"
   version="1.1"
   id="Layer_1"
   x="0px"
   y="0px"
   viewBox="0 0 580.40005 41.7"
   xml:space="preserve"
   inkscape:version="0.91 r13725"
   sodipodi:docname="logo.svg"
   width="580.40002"
   height="41.700001"><metadata
     id="metadata31"><rdf:RDF><cc:Work
         rdf:about=""><dc:format>image/svg+xml</dc:format><dc:type
           rdf:resource="http://purl.org/dc/dcmitype/StillImage" /><dc:title></dc:title></cc:Work></rdf:RDF></metadata><defs
     id="defs29" /><sodipodi:namedview
     pagecolor="#ffffff"
     bordercolor="#666666"
     borderopacity="1"
     objecttolerance="10"
     gridtolerance="10"
     guidetolerance="10"
     inkscape:pageopacity="0"
     inkscape:pageshadow="2"
     inkscape:window-width="640"
     inkscape:window-height="480"
     id="namedview27"
     showgrid="false"
     fit-margin-top="0"
     fit-margin-left="0"
     fit-margin-right="0"
     fit-margin-bottom="0"
     inkscape:zoom="0.47787045"
     inkscape:cx="290.29999"
     inkscape:cy="25.299999"
     inkscape:window-x="65"
     inkscape:window-y="24"
     inkscape:window-maximized="0"
     inkscape:current-layer="Layer_1" /><style
     type="text/css"
     id="style3">
	.st0{fill:#F3CA35;}
	.st1{fill:#BB9C35;}
	.st2{fill:#404040;}
	.st3{fill:#04B2CA;}
</style><g
     id="g5"
     transform="translate(-21.5,-40.3)"><path
       id="XMLID_204_"
       class="st0"
       d="M 101.1,73.1 C 83,73.1 68.3,58.4 68.3,40.3 l 18.7,0 c 0,7.7 6.3,14 14,14 7.7,0 14,-6.3 14,-14 l 18.7,0 c 0.2,18.1 -14.5,32.8 -32.6,32.8 z"
       inkscape:connector-curvature="0"
       style="fill:#f3ca35" /><path
       id="XMLID_5_"
       class="st0"
       d="M 101.1,73.1 C 83,73.1 68.3,58.4 68.3,40.3 l 18.7,0 c 0,7.7 6.3,14 14,14 7.7,0 14,-6.3 14,-14 l 18.7,0 c 0.2,18.1 -14.5,32.8 -32.6,32.8 z"
       inkscape:connector-curvature="0"
       style="fill:#f3ca35" /><path
       id="XMLID_202_"
       class="st1"
       d="m 87.1,40.3 -18.7,0 c 0,10.8 5.2,20.4 13.3,26.3 4.4,-4.6 7.7,-10.3 9.4,-16.6 -2.5,-2.5 -4,-5.9 -4,-9.7 z"
       inkscape:connector-curvature="0"
       style="fill:#bb9c35" /><path
       id="XMLID_231_"
       class="st2"
       d="m 211.4,48 c -3.2,0 -5.8,1.5 -7.3,4.2 l 0,-11.9 -14.9,0 -5.8,22.3 -6.3,-22.3 -5.3,0 -5.8,22.5 -6,-22.4 -7.2,0 0,5.2 2.2,0 7.8,27.5 5.8,0 6.1,-21.6 6.1,21.6 5.9,0 7.3,-27.5 4.6,0 0,27.5 5.6,0 0,-12.7 c 0,-1.8 0,-3.4 1.2,-4.9 1,-1.3 2.6,-2 4.2,-2 1.8,0 3.4,0.7 4.5,2.2 1,1.6 0.8,3.3 0.8,5.1 l 0,12.2 5.6,0 0,-13.6 c 0,-2.9 -0.2,-5.3 -2,-7.8 -1.8,-2.2 -4.2,-3.6 -7.1,-3.6 z"
       inkscape:connector-curvature="0"
       style="fill:#404040" /><path
       id="XMLID_228_"
       class="st2"
       d="m 235.9,47.8 c -7.3,0 -12.8,5.8 -12.8,13.1 0,7.2 5.7,12.8 12.9,12.8 5.1,0 9.6,-3.2 11.6,-7.8 l -5.8,0 c -1.4,2 -3.5,2.9 -5.9,2.9 -3.5,0 -6.6,-2.5 -7.3,-5.9 l 19.8,0 0.2,-2 c 0,-3.5 -1,-6.6 -3.4,-9.2 -2.5,-2.3 -5.9,-3.9 -9.3,-3.9 z m -7.4,10.8 c 0.7,-3.2 3.9,-5.8 7.2,-5.8 3.6,0 6.7,2.2 7.7,5.8 l -14.9,0 z"
       inkscape:connector-curvature="0"
       style="fill:#404040" /><path
       id="XMLID_227_"
       class="st2"
       d="m 264.2,48.3 c -3.2,0.1 -5.9,1.6 -7.3,4.5 l 0,-4.2 -7.3,0 0,5.2 2.1,0 0,19.3 5.6,0 0,-11.5 c 0,-2.3 0.3,-4.3 2.1,-5.8 1.4,-1.2 3,-1.7 4.8,-1.8 l 0,-5.7 z"
       inkscape:connector-curvature="0"
       style="fill:#404040" /><path
       id="XMLID_224_"
       class="st2"
       d="m 277.6,47.8 c -7.3,0 -12.8,5.8 -12.8,13.1 0,7.2 5.7,12.8 12.9,12.8 5.1,0 9.6,-3.2 11.6,-7.8 l -5.8,0 c -1.4,2 -3.5,2.9 -5.9,2.9 -3.5,0 -6.6,-2.5 -7.3,-5.9 l 19.7,0 0.2,-2 c 0,-3.5 -1,-6.6 -3.4,-9.2 -2.5,-2.3 -5.9,-3.9 -9.2,-3.9 z m -7.5,10.8 c 0.7,-3.2 3.9,-5.8 7.2,-5.8 3.6,0 6.7,2.2 7.7,5.8 l -14.9,0 z"
       inkscape:connector-curvature="0"
       style="fill:#404040" /><polygon
       id="XMLID_223_"
       class="st2"
       points="295.3,67.8 295.3,73.1 306.5,73.1 306.5,67.8 304,67.8 304,45.5 306.5,45.5 306.5,40.3 295.3,40.3 295.3,45.5 297.8,45.5 297.8,67.8 "
       style="fill:#404040" /><polygon
       id="XMLID_222_"
       class="st2"
       points="373.1,53.8 375.3,53.8 382.7,72.8 381,76.8 379.1,76.8 379.1,82 384.5,82 398.3,48.6 392.2,48.6 385.6,65.8 379.3,48.6 373.1,48.6 "
       style="fill:#404040" /><polygon
       id="XMLID_221_"
       class="st2"
       points="401.8,40.3 399.5,45.9 404.4,45.9 409.3,45.9 409.3,67.8 406.8,67.8 406.8,73.1 418,73.1 418,67.8 415.5,67.8 415.5,45.9 420.3,45.9 425.3,45.9 425.3,40.3 "
       style="fill:#404040" /><path
       id="XMLID_220_"
       class="st2"
       d="m 439.9,48.3 c -3.2,0.1 -5.9,1.6 -7.3,4.5 l 0,-4.2 -7.3,0 0,5.2 2.1,0 0,14 0,5.2 5.6,0 0,-5.2 0,-6.2 c 0,-2.3 0.3,-4.3 2.1,-5.8 1.4,-1.2 3,-1.7 4.8,-1.8 l 0,-5.7 z"
       inkscape:connector-curvature="0"
       style="fill:#404040" /><path
       id="XMLID_217_"
       class="st2"
       d="m 466.6,53.8 0,-5.2 -5.7,0 0,3.5 c -1.7,-2.7 -4.5,-4.1 -7.6,-4.1 -7.2,0 -12.8,5.9 -12.8,13 0,6.9 5.6,12.8 12.6,12.8 3.2,0 6.1,-1.2 7.9,-3.9 l 0,3.3 7.7,0 0,-5.2 -2,0 0,-14.2 z m -13.1,14.5 c -3.9,0 -7.3,-3.3 -7.3,-7.3 0,-4.1 3.2,-7.6 7.4,-7.6 4,0 7.4,3.3 7.4,7.3 0,4.2 -3.3,7.6 -7.5,7.6 z"
       inkscape:connector-curvature="0"
       style="fill:#404040" /><path
       id="XMLID_216_"
       class="st2"
       d="m 493.2,58.3 c 0,-2.8 0,-5 -2.1,-7.2 -1.8,-1.9 -4.4,-3 -7.1,-3 -3,0 -5.8,1.3 -7.3,4 l 0,-3.5 -7.7,0 0,5.2 2.1,0 0,14 0,5.2 5.6,0 0,-5.2 0,-7.1 c 0,-1.7 0,-3.8 1.1,-5.1 1,-1.4 2.8,-2.1 4.5,-2.1 1.7,0 3.3,0.6 4.3,2 1,1.3 1,2.9 1,4.4 l 0,7.9 0,5.2 7.7,0 0,-5.2 -2.1,0 0,-9.5 z"
       inkscape:connector-curvature="0"
       style="fill:#404040" /><path
       id="XMLID_213_"
       class="st2"
       d="m 532.4,48.3 c -3.3,0 -6.2,1.3 -8,4.1 l 0,-3.9 -5.6,0 0,5.2 0,23 -2,0 0,5.3 7.7,0 0,-5.2 0,-7.2 c 2,2.6 5.1,3.8 8.3,3.8 6.8,0 12.2,-5.8 12.2,-12.5 -0.1,-6.9 -5.7,-12.6 -12.6,-12.6 z m -0.7,20 c -4.1,0 -7.4,-3.3 -7.4,-7.4 0,-4.2 3.4,-7.4 7.5,-7.4 4.1,0 7.3,3.5 7.3,7.5 0,4 -3.3,7.3 -7.4,7.3 z"
       inkscape:connector-curvature="0"
       style="fill:#404040" /><path
       id="XMLID_210_"
       class="st2"
       d="m 560.3,47.8 c -7.1,0 -12.9,5.7 -12.9,12.9 0,7.1 5.6,13 12.8,13 7.2,0 12.9,-5.9 12.9,-13 -0.1,-7 -5.8,-12.9 -12.8,-12.9 z m -0.2,20.4 c -4.2,0 -7.3,-3.5 -7.3,-7.5 0,-4.1 3.4,-7.3 7.4,-7.3 4.1,0 7.3,3.5 7.3,7.5 0,4 -3.3,7.3 -7.4,7.3 z"
       inkscape:connector-curvature="0"
       style="fill:#404040" /><path
       id="XMLID_209_"
       class="st2"
       d="m 597.7,48.3 0,-8 -5.6,0 0,8 -3.9,0 c -3.2,0.1 -5.9,1.6 -7.3,4.5 l 0,-4.2 -7.3,0 0,5.2 2.1,0 0,19.3 5.6,0 0,-11.5 c 0,-2.3 0.3,-4.3 2.1,-5.8 1.4,-1.2 3,-1.7 4.8,-1.8 l 3.9,0 0,19 5.6,0 0,-19 4.2,0 0,-5.7 -4.2,0 z"
       inkscape:connector-curvature="0"
       style="fill:#404040" /><path
       id="XMLID_208_"
       class="st2"
       d="m 508.1,58 c -2.3,-0.7 -4.1,-1.5 -4.1,-3.1 0,-1.2 0.9,-2.4 2.9,-2.4 2.3,0 2.9,1.3 3,2.6 l 5.7,0 c -0.5,-5.9 -5.4,-7.3 -8.7,-7.3 -4.7,0 -8.7,3 -8.7,7.8 0,3.5 2.7,5.3 6,6.3 4.5,1.6 6.3,2.1 6.3,4.2 0,1.6 -1.5,2.8 -3.3,2.8 -1,0 -3,-0.5 -3.5,-2.6 l -5.9,0 c 0.7,5.5 5.6,7.3 9.3,7.3 5.1,0 9.3,-3.2 9.2,-8.2 -0.1,-5.1 -4.3,-6.3 -8.2,-7.4 z"
       inkscape:connector-curvature="0"
       style="fill:#404040" /><path
       id="XMLID_207_"
       class="st2"
       d="m 318.7,58 c -2.3,-0.7 -4.1,-1.5 -4.1,-3.1 0,-1.2 0.9,-2.4 2.9,-2.4 2.3,0 2.9,1.3 3,2.6 l 5.7,0 c -0.5,-5.9 -5.4,-7.3 -8.7,-7.3 -4.7,0 -8.7,3 -8.7,7.8 0,3.5 2.7,5.3 6,6.3 4.5,1.6 6.3,2.1 6.3,4.2 0,1.6 -1.5,2.8 -3.3,2.8 -1,0 -3,-0.5 -3.5,-2.6 l -5.9,0 c 0.7,5.5 5.6,7.3 9.3,7.3 5.1,0 9.3,-3.2 9.2,-8.2 -0.1,-5.1 -4.3,-6.3 -8.2,-7.4 z"
       inkscape:connector-curvature="0"
       style="fill:#404040" /><polygon
       id="XMLID_206_"
       class="st2"
       points="331.9,45.5 334.4,45.5 334.4,67.8 331.9,67.8 331.9,73.1 340.7,73.1 340.7,67.8 340.7,48.8 350,73.1 354.4,73.1 363.4,48.8 363.4,67.8 363.4,73.1 372.2,73.1 372.2,67.8 369.7,67.8 369.7,45.5 372.2,45.5 372.2,40.3 361,40.3 352.1,63.4 343.2,40.3 331.9,40.3 "
       style="fill:#404040" /><path
       id="XMLID_3_"
       class="st3"
       d="M 54.3,73.1 C 36.2,73.1 21.5,58.4 21.5,40.3 l 18.7,0 c 0,7.7 6.3,14 14,14 7.7,0 14,-6.3 14,-14 l 18.8,0 C 87,58.4 72.3,73.1 54.3,73.1 Z"
       inkscape:connector-curvature="0"
       style="fill:#04b2ca" /></g></svg>